<svg viewBox="0 0 24 24" version="1.1" xmlns="http://www.w3.org/2000/svg" xmlns:xlink="http://www.w3.org/1999/xlink" fill="rgba(255,1,1,0.5)">
    <path d="M12,20.25 C11.409375,20.242125 10.82025,20.179875 10.24125,20.06325 C9.967875,20.016375 9.687375,20.08875 9.470625,20.26275 C8.363625,21.076125 7.0635,21.586875 5.698875,21.74475 C5.474625,21.76875 5.27325,21.605625 5.249625,21.381 C5.2395,21.285 5.263875,21.18825 5.31825,21.108375 C5.8455,20.451375 6.22425,19.68825 6.427875,18.87075 C6.469125,18.647625 6.382125,18.420375 6.202125,18.282 C4.212,16.803375 3.027375,14.479125 3,12 C3,7.449375 7.029375,3.75 12,3.75 C16.970625,3.75 21,7.449375 21,12 C21,16.550625 16.970625,20.25 12,20.25" id="path-1"></path>
</svg>