<svg xmlns="http://www.w3.org/2000/svg" xmlns:xlink="http://www.w3.org/1999/xlink" width="16" height="16" version="1.1" viewBox="0 0 16 16">
    <title>
        pr-status
    </title>
    <desc>
        Created using Figma
    </desc>
    <g id="Canvas" transform="translate(-37636 3820)">
        <g id="pr-status">
            <g id="open">
                <use fill="#A2B0CD" transform="translate(37638 -3819)" xlink:href="#path0_fill"/>
            </g>
        </g>
    </g>
    <defs>
        <path id="path0_fill" d="M 11 10.5292L 11 4.66667C 10.9688 3.9375 10.6625 3.29583 10.0625 2.74167C 9.4625 2.19333 8.78125 1.89 8 1.86667L 7 1.86667L 7 0L 4 2.8L 7 5.6L 7 3.73333L 8 3.73333C 8.26875 3.75083 8.48125 3.83833 8.6875 4.025C 8.89375 4.21167 8.9875 4.41583 9 4.66667L 9 10.5292C 8.04375 11.0425 7.71875 12.18 8.26875 13.0667C 8.625 13.6442 9.2875 14 10 14C 11.1 14 11.9937 13.1717 12 12.145C 12 11.48 11.6187 10.8617 11 10.5292ZM 10 13.2533C 9.3375 13.2533 8.8 12.74 8.8 12.1333C 8.8 11.5267 9.35 11.0133 10 11.0133C 10.65 11.0133 11.2 11.5267 11.2 12.1333C 11.2 12.74 10.65 13.2533 10 13.2533ZM 4 2.8C 4 1.76167 3.1125 0.933333 2 0.933333C 0.9 0.933333 0.00625 1.76167 0 2.78833C 0 3.45333 0.38125 4.07167 1 4.40417L 1 10.5292C 0.04375 11.0425 -0.28125 12.18 0.26875 13.0667C 0.625 13.6442 1.2875 14 2 14C 3.1 14 3.99375 13.1717 4 12.145C 4 11.48 3.61875 10.8617 3 10.5292L 3 4.40417C 3.5875 4.08917 4 3.48833 4 2.8ZM 3.2 12.1333C 3.2 12.7517 2.65 13.2533 2 13.2533C 1.35 13.2533 0.8 12.74 0.8 12.1333C 0.8 11.5267 1.35 11.0133 2 11.0133C 2.65 11.0133 3.2 11.5267 3.2 12.1333ZM 2 3.92C 1.3375 3.92 0.8 3.40667 0.8 2.8C 0.8 2.19333 1.35 1.68 2 1.68C 2.65 1.68 3.2 2.19333 3.2 2.8C 3.2 3.40667 2.65 3.92 2 3.92Z"/>
    </defs>
</svg>
