<svg id="Layer_1" data-name="Layer 1" xmlns="http://www.w3.org/2000/svg" viewBox="0 0 64 64"><title>Icons 300</title><path d="M63.006,52.0209,37.99,52.0175a.9946.9946,0,0,1-.9967-.94,9.3927,9.3927,0,0,0-1.7054-5.5065,1.2507,1.2507,0,0,1,.517-1.96l.0787-.0292c4.34-1.6118,5.8338-3.1989,6.0916-7.1406a9.3845,9.3845,0,0,1-2.0107-1.7381,9.4759,9.4759,0,0,1-1.9072-4.68,1.4073,1.4073,0,0,1-.1463.0094c-1.0858,0-1.9078-2.29-1.9078-3.9s.558-2.1,1.09-2.1c.1114,0,.2146.0055.314.0139a13.5669,13.5669,0,0,1-.3971-3.0886c0-3.9034,1.0952-6.6059,4.4393-7.0867,1.8508-1.2841,4.6493-1.8507,8.2235-1.8507,2.2867,0,.3817,1.5642,2.53,2.0209,1.33.2827,3.8068,1.2254,3.8068,6.9165a13.568,13.568,0,0,1-.3968,3.0886c.0991-.0084.2026-.0139.314-.0139.5322,0,1.09.49,1.09,2.1s-.8217,3.9-1.9075,3.9a1.4078,1.4078,0,0,1-.1466-.0094,9.473,9.473,0,0,1-1.9072,4.68,9.3508,9.3508,0,0,1-1.988,1.723c.2546,3.9529,1.7466,5.5418,6.0925,7.1557,4.5262,1.6809,6.5841,2.8386,6.8478,7.369A1.01,1.01,0,0,1,63.006,52.0209ZM10.0088,36.0245c-1.235,0-5.0008-3.0664-5.0008-10.4022,0-8.5946,4.935-13.6027,10.8355-13.6027,2.824,0,4.153.13,5.6671,1.5013,4.3219,0,8.5026,3.2055,8.5026,12.1014,0,7.2786-3.7275,10.4022-5.0011,10.4022-.4435,0-.78-.3881-1.2768-.8936a10.0621,10.0621,0,0,1-1.668,1.3382c.2631,3.9213,1.7611,5.5049,6.095,7.1129,4.53,1.6809,6.59,2.8386,6.8538,7.3689a1.0109,1.0109,0,0,1-1.0033,1.07H1.0159a1.0112,1.0112,0,0,1-1.0033-1.07c.264-4.53,2.3238-5.688,6.8538-7.3689,4.332-1.6073,5.8306-3.19,6.0947-7.1074a10.06,10.06,0,0,1-1.684-1.3525C10.7757,35.6319,10.4412,36.0245,10.0088,36.0245Z" fill-rule="evenodd"/></svg>