<svg id="Layer_1" data-name="Layer 1" xmlns="http://www.w3.org/2000/svg" viewBox="0 0 64 64"><title>Icons 100</title><path d="M48.01,49.0208h-22a2,2,0,0,1,0-4h22a2,2,0,0,1,0,4Zm0-10h-22a2,2,0,0,1,0-4h22a2,2,0,0,1,0,4Zm0-10h-22a2,2,0,0,1-2-2h0a2,2,0,0,1,2-2h22a2,2,0,0,1,2,2h0A2,2,0,0,1,48.01,29.0208Zm0-10h-22a2,2,0,0,1,0-4h22a2,2,0,0,1,0,4Zm-34,7a2,2,0,0,1,2-2h2a2,2,0,0,1,2,2v2a2,2,0,0,1-2,2h-2a2,2,0,0,1-2-2Zm2,18h2a2,2,0,0,1,2,2v2a2,2,0,0,1-2,2h-2a2,2,0,0,1-2-2v-2A2,2,0,0,1,16.01,44.0208Zm-2-8a2,2,0,0,1,2-2h2a2,2,0,0,1,2,2v2a2,2,0,0,1-2,2h-2a2,2,0,0,1-2-2Zm6-18a2,2,0,0,1-2,2h-2a2,2,0,0,1-2-2v-2a2,2,0,0,1,2-2h2a2,2,0,0,1,2,2Z" fill-rule="evenodd"/></svg>