<svg version="1.1" id="Layer_1" xmlns="http://www.w3.org/2000/svg" xmlns:xlink="http://www.w3.org/1999/xlink" x="0px" y="0px"
	 viewBox="0 0 64 64" style="enable-background:new 0 0 64 64;" xml:space="preserve">
<title>Icons 400</title>
<g>
	<path d="M23,22.4c1.3,0,2.4-1.1,2.4-2.4s-1.1-2.4-2.4-2.4c-1.3,0-2.4,1.1-2.4,2.4S21.7,22.4,23,22.4z"/>
	<path d="M35,26.4c1.3,0,2.4-1.1,2.4-2.4s-1.1-2.4-2.4-2.4s-2.4,1.1-2.4,2.4S33.7,26.4,35,26.4z"/>
	<path d="M23,42.4c1.3,0,2.4-1.1,2.4-2.4s-1.1-2.4-2.4-2.4s-2.4,1.1-2.4,2.4S21.7,42.4,23,42.4z"/>
	<path d="M50,16h-1.5c-0.3,0-0.5,0.2-0.5,0.5v35c0,0.3-0.2,0.5-0.5,0.5h-27c-0.5,0-1-0.2-1.4-0.6l-0.6-0.6c-0.1-0.1-0.1-0.2-0.1-0.4
		c0-0.3,0.2-0.5,0.5-0.5H44c1.1,0,2-0.9,2-2V12c0-1.1-0.9-2-2-2H14c-1.1,0-2,0.9-2,2v36.3c0,1.1,0.4,2.1,1.2,2.8l3.1,3.1
		c1.1,1.1,2.7,1.8,4.2,1.8H50c1.1,0,2-0.9,2-2V18C52,16.9,51.1,16,50,16z M19,20c0-2.2,1.8-4,4-4c1.4,0,2.8,0.8,3.5,2
		c1.1,1.9,0.4,4.3-1.5,5.4V33c1-0.6,2.3-0.9,4-0.9c1,0,2-0.5,2.8-1.3C32.5,30,33,29.1,33,28v-0.6c-1.2-0.7-2-2-2-3.5
		c0-2.2,1.8-4,4-4c2.2,0,4,1.8,4,4c0,1.5-0.8,2.7-2,3.5h0c-0.1,2.1-0.9,4.4-2.5,6c-1.6,1.6-3.4,2.4-5.5,2.5c-0.8,0-1.4,0.1-1.9,0.3
		c-0.2,0.1-1,0.8-1.2,0.9C26.6,38,27,38.9,27,40c0,2.2-1.8,4-4,4s-4-1.8-4-4c0-1.5,0.8-2.7,2-3.4V23.4C19.8,22.7,19,21.4,19,20z"/>
</g>
</svg>
