<svg xmlns="http://www.w3.org/2000/svg" xmlns:xlink="http://www.w3.org/1999/xlink" width="16" height="16" version="1.1" viewBox="0 0 16 16">
    <title>
        gh-comment
    </title>
    <desc>
        Created using Figma
    </desc>
    <g id="Canvas" transform="translate(-37458 3622)">
        <g id="gh-comment">
            <g id="Vector">
                <use fill="#C5C5C5" transform="translate(37459 -3618)" xlink:href="#path0_fill"/>
            </g>
        </g>
    </g>
    <defs>
        <path id="path0_fill" fill-rule="evenodd" d="M 10.86 3C 10.41 1.28 8.86 0 7 0C 5.14 0 3.59 1.28 3.14 3L 0 3L 0 5L 3.14 5C 3.59 6.72 5.14 8 7 8C 8.86 8 10.41 6.72 10.86 5L 14 5L 14 3L 10.86 3ZM 7 6.2C 5.78 6.2 4.8 5.22 4.8 4C 4.8 2.78 5.78 1.8 7 1.8C 8.22 1.8 9.2 2.78 9.2 4C 9.2 5.22 8.22 6.2 7 6.2L 7 6.2Z"/>
    </defs>
</svg>
